<?xml version="1.0" encoding="UTF-8" standalone="no"?>
<svg
   xmlns:dc="http://purl.org/dc/elements/1.1/"
   xmlns:cc="http://creativecommons.org/ns#"
   xmlns:rdf="http://www.w3.org/1999/02/22-rdf-syntax-ns#"
   xmlns:svg="http://www.w3.org/2000/svg"
   xmlns="http://www.w3.org/2000/svg"
   viewBox="0 0 507.21332 518.21332"
   height="518.21332"
   width="507.21332"
   xml:space="preserve"
   id="svg2"
   version="1.1"><metadata
     id="metadata8"><rdf:RDF><cc:Work
         rdf:about=""><dc:format>image/svg+xml</dc:format><dc:type
           rdf:resource="http://purl.org/dc/dcmitype/StillImage" /></cc:Work></rdf:RDF></metadata><defs
     id="defs6"><clipPath
       id="clipPath20"
       clipPathUnits="userSpaceOnUse"><path
         id="path18"
         d="M 0,0 H 3804 V 3886.65 H 0 Z" /></clipPath></defs><g
     transform="matrix(1.3333333,0,0,-1.3333333,0,518.21333)"
     id="g10"><g
       transform="scale(0.1)"
       id="g12"><g
         id="g14"><g
           clip-path="url(#clipPath20)"
           id="g16"><path
             id="path22"
             style="fill:#99604d;fill-opacity:1;fill-rule:nonzero;stroke:none"
             d="M 90.3945,3716.32 C 284.328,3908.55 3458.78,3874.4 3657.9,3689.67 3857.01,3504.94 3864.24,328.262 3608.19,168.109 3352.14,7.96094 484.773,-94.1797 263.762,128.441 42.7461,351.059 -103.539,3524.08 90.3945,3716.32" /><path
             id="path24"
             style="fill:#363535;fill-opacity:1;fill-rule:nonzero;stroke:none"
             d="m 1214.62,1856.59 c -33.63,389.23 195.84,734.67 546.17,804.76 449.1,89.86 963.75,-292.59 954.44,-758.57 -8.13,-407.48 -378.05,-762.17 -802.22,-734.66 -360.14,23.36 -666.23,316.2 -698.39,688.47" /><path
             id="path26"
             style="fill:#f0e7dc;fill-opacity:1;fill-rule:nonzero;stroke:none"
             d="m 238.813,2504.03 c 118.796,101.32 757.929,25.31 813.787,-48.74 55.86,-74.04 -343.588,-1388.14 866.8,-1439.03 1100.82,-46.268 949.44,1229.23 1021.98,1323.87 72.55,94.64 529.46,58 580.13,-8.58 50.67,-66.58 71.27,-1857.749 -102.96,-1973.241 C 3244.32,242.82 502.648,236.852 421.453,344.18 340.262,451.512 120.016,2402.7 238.813,2504.03" /><path
             id="path28"
             style="fill:#363535;fill-opacity:1;fill-rule:nonzero;stroke:none"
             d="m 2720.63,2716.7 c -64.62,86.28 -40.36,608.98 25.04,677.93 65.41,68.94 573.46,39.19 627.42,-32.34 53.97,-71.54 52.54,-583.43 22.1,-647.32 -30.43,-63.9 -645.07,-37.65 -674.56,1.73" /><path
             id="path30"
             style="fill:#304e40;fill-opacity:1;fill-rule:nonzero;stroke:none"
             d="m 3066.42,3300.82 c 125.46,-12.65 220.54,-117.82 226.97,-236.29 7.84,-144.58 -118.17,-275.52 -266.36,-267.19 -153.04,8.6 -264.23,162.05 -232.73,307.21 25.8,118.94 142.4,209.36 272.12,196.27" /><path
             id="path32"
             style="fill:#304e40;fill-opacity:1;fill-rule:nonzero;stroke:none"
             d="m 1896.35,2540.21 c 327,45.68 661.99,-195.31 693,-534.21 32.41,-354.14 -280.76,-666.04 -632.55,-651.78 -319.4,12.94 -593.45,291.62 -581.93,618 10.3,291.84 245.66,529.47 521.48,567.99" /><path
             id="path34"
             style="fill:#452a46;fill-opacity:1;fill-rule:nonzero;stroke:none"
             d="m 1575.66,1997.48 c 22.55,209.88 216.67,362.92 422.54,353.72 214.47,-9.59 401.14,-193.47 390.21,-417.27 -10.98,-224.8 -216.56,-392.25 -435.16,-376.83 -222.94,15.73 -401.53,217.56 -377.59,440.38" /><path
             id="path36"
             style="fill:#452a46;fill-opacity:1;fill-rule:nonzero;stroke:none"
             d="m 3021.52,3192.33 c 78.62,10.82 160.56,-59 156.24,-143.71 -4.08,-80.11 -83.82,-144.39 -163.15,-128.26 -70.65,14.36 -116.53,87.54 -105.83,157.15 8.85,57.59 55.54,106.94 112.74,114.82" /><path
             id="path38"
             style="fill:#ffffff;fill-opacity:1;fill-rule:nonzero;stroke:none"
             d="m 2277.41,2033.82 c 16.39,-6.87 179.79,49.08 188.8,78.59 11.15,36.5 -75.81,155.32 -97.93,152.13 -22.12,-3.2 -154.69,-135.68 -154.34,-153.68 0.31,-16.37 47.08,-70.17 63.47,-77.04 z m -182,172.83 c -13.27,35.03 73.02,195.03 103.85,197.7 26.61,2.3 125.36,-54.26 134.06,-103.81 4.54,-25.91 -130.16,-139.91 -158.82,-144.05 -25.43,-3.68 -79.09,50.16 -79.09,50.16" /><path
             id="path40"
             style="fill:#ffffff;fill-opacity:1;fill-rule:nonzero;stroke:none"
             d="m 3129.18,3020.98 c 9.84,-4.13 108.04,29.5 113.45,47.23 6.7,21.94 -45.55,93.34 -58.85,91.43 -13.29,-1.93 -92.96,-81.54 -92.75,-92.35 0.19,-9.85 28.3,-42.18 38.15,-46.31 z m -109.38,103.87 c -7.98,21.05 43.88,117.2 62.41,118.81 15.99,1.38 75.33,-32.61 80.56,-62.39 2.73,-15.57 -78.22,-84.08 -95.44,-86.57 -15.28,-2.2 -47.53,30.15 -47.53,30.15" /><path
             id="path42"
             style="fill:#d8b2d7;fill-opacity:1;fill-rule:nonzero;stroke:none"
             d="m 2294.01,2204.37 c -39.9,-38.72 -80.26,-83.56 -80.07,-93.5 0.31,-16.38 47.08,-70.18 63.47,-77.05 8.12,-3.41 52.34,8.63 95.97,25.21 -15.84,54.03 -43.45,103.19 -79.37,145.34" /><path
             id="path44"
             style="fill:#d8b2d7;fill-opacity:1;fill-rule:nonzero;stroke:none"
             d="m 2174.5,2156.49 c 15.29,2.21 60.71,35.71 99.12,70.41 -39.87,40.41 -88.02,72.51 -140.96,94.11 -24.65,-45.62 -44.05,-96.4 -37.25,-114.36 0,0 53.66,-53.83 79.09,-50.16" /><path
             id="path46"
             style="fill:#d8b2d7;fill-opacity:1;fill-rule:nonzero;stroke:none"
             d="m 3138.46,3147.85 c -25.6,26.71 -60.48,43.6 -96.78,44.75 -14.57,-27.17 -25.92,-57.08 -21.88,-67.75 0,0 32.25,-32.35 47.53,-30.15 10.79,1.56 46.56,29.02 71.13,53.15" /><path
             id="path48"
             style="fill:#d8b2d7;fill-opacity:1;fill-rule:nonzero;stroke:none"
             d="m 3177.76,3048.62 c 1.63,31.87 -8.98,61.62 -27.02,85.77 -27.04,-24.9 -59.84,-60.15 -59.71,-67.1 0.19,-9.85 28.3,-42.18 38.15,-46.31 4.13,-1.73 23.91,3.34 45.76,10.93 1.04,5.55 2.53,10.97 2.82,16.71" /><path
             id="path50"
             style="fill:#eb1347;fill-opacity:1;fill-rule:nonzero;stroke:none"
             d="m 288.984,3782.77 c -20.16,-305.36 -40.32,-610.73 -60.476,-916.1 -8.246,-124.89 185.281,-149.81 193.558,-24.43 20.157,305.36 40.317,610.73 60.473,916.1 8.242,124.89 -185.281,149.81 -193.555,24.43" /><path
             id="path52"
             style="fill:#eeb618;fill-opacity:1;fill-rule:nonzero;stroke:none"
             d="m 481.918,3802.74 c -14.797,-312.58 -29.594,-625.17 -44.391,-937.75 -5.906,-124.76 187.618,-149.88 193.559,-24.43 14.797,312.58 29.598,625.16 44.391,937.74 5.91,124.77 -187.618,149.88 -193.559,24.44" /><path
             id="path54"
             style="fill:#44bc66;fill-opacity:1;fill-rule:nonzero;stroke:none"
             d="m 661.977,3804.23 c -7.481,-304.98 -14.957,-609.95 -22.434,-914.93 -3.055,-124.49 190.48,-149.84 193.559,-24.43 7.476,304.98 14.953,609.95 22.433,914.93 3.055,124.49 -190.48,149.84 -193.558,24.43" /><path
             id="path56"
             style="fill:#5467ba;fill-opacity:1;fill-rule:nonzero;stroke:none"
             d="m 848.719,3772.61 c 12.621,-304.02 10.109,-607.32 -6.672,-911.1 -6.899,-124.83 186.623,-149.86 193.553,-24.43 17.74,321.13 19.5,642.08 6.16,963.41 -5.2,125.29 -198.205,96.51 -193.041,-27.88" /></g></g></g></g></svg>